<?xml version="1.0" encoding="utf-8"?>
<!-- Generator: Adobe Illustrator 22.1.0, SVG Export Plug-In . SVG Version: 6.00 Build 0)  -->
<svg version="1.1" id="Layer_1" xmlns="http://www.w3.org/2000/svg" xmlns:xlink="http://www.w3.org/1999/xlink" x="0px" y="0px"
	 viewBox="0 0 1920 1080" style="enable-background:new 0 0 1920 1080;" xml:space="preserve">
<style type="text/css">
	.st0{clip-path:url(#SVGID_2_);}
	.st1{fill:#D9EEF3;}
	.st2{fill:#758CB2;}
	.st3{fill:#FDD014;}
	.st4{fill:#B8DFE8;}
	.st5{fill:#88C4D5;}
	.st6{opacity:0.5;}
	.st7{fill:#FFFFFF;}
	.st8{fill:#FFFFF9;}
	.st9{clip-path:url(#SVGID_4_);fill:#FFFFFF;}
	.st10{clip-path:url(#SVGID_4_);fill:#FFFFF9;}
	.st11{clip-path:url(#SVGID_4_);fill:#88C4D5;}
	.st12{clip-path:url(#SVGID_4_);fill:#EA0000;}
	.st13{clip-path:url(#SVGID_4_);fill:#FFC5B9;}
	.st14{clip-path:url(#SVGID_4_);fill:#FF9986;}
	.st15{clip-path:url(#SVGID_4_);fill:#9C1552;}
	.st16{clip-path:url(#SVGID_4_);fill:#BA4072;}
	.st17{clip-path:url(#SVGID_4_);fill:#B8DFE8;}
	.st18{clip-path:url(#SVGID_4_);}
	.st19{opacity:0.6;clip-path:url(#SVGID_4_);fill:#FF9986;}
	.st20{clip-path:url(#SVGID_4_);fill:#1D406A;}
	.st21{opacity:0.46;fill:#88C4D5;}
	.st22{fill:#AF0000;}
	.st23{fill:#00D1D1;}
	.st24{fill:#BA4072;}
	.st25{fill:#E60000;}
	.st26{fill:#BD4073;}
	.st27{fill:#0093A9;}
	.st28{fill:#FF9986;}
	.st29{fill:#FDB6A8;}
	.st30{fill:none;stroke:#D9EEF3;stroke-width:2.088;stroke-miterlimit:10;stroke-dasharray:3.48,3.48;}
	.st31{fill:#FFC5B9;}
	.st32{opacity:0.83;fill:#FFFFFF;}
	.st33{fill:#FD0000;}
	.st34{fill:#08D0D0;}
	.st35{fill:#FFCC33;}
	.st36{opacity:0.35;fill:#FFFFFF;}
	.st37{clip-path:url(#SVGID_6_);}
	.st38{fill:#EA0000;}
	.st39{fill:#748CB1;}
	.st40{opacity:0.6;fill:#FF9986;}
	.st41{fill:#1D406A;}
	.st42{fill:#9C1552;}
	.st43{fill:#91CEDC;}
	.st44{clip-path:url(#SVGID_8_);}
	.st45{clip-path:url(#SVGID_10_);}
</style>
<g>
	<defs>
		<rect id="SVGID_7_" y="-1368" width="1920" height="1080"/>
	</defs>
	<clipPath id="SVGID_2_">
		<use xlink:href="#SVGID_7_"  style="overflow:visible;"/>
	</clipPath>
	<g class="st0">
		<path class="st7" d="M183.8-187.5l699.9-212.2h1001.6c-19.4,17.5-527.2,494-538.5,491.8c-10-1.9-942.1-197.5-1163-255.2
			C171.2-166.4,171.2-184.2,183.8-187.5z"/>
	</g>
</g>
<g>
	<defs>
		<rect id="SVGID_9_" width="1920" height="1080"/>
	</defs>
	<clipPath id="SVGID_4_">
		<use xlink:href="#SVGID_9_"  style="overflow:visible;"/>
	</clipPath>
	<g class="st18">
		<path class="st1" d="M260.1,548.5c-25.5-0.4-38.3-6.3-53.8-29.9c-30.2-45.3-82.8-75.3-142.6-75.3c-93.8,0-169.8,73.7-169.8,164.6
			c0,90.9,70.7,225.3,164.5,225.3c48.8,0,94.3-36.5,126.7-84.2c20.3,16.5,46.5,26.5,75.2,26.5c64.6,0,117-50.8,117-113.4
			C377.2,599.2,324.8,548.5,260.1,548.5z"/>
		<path class="st3" d="M791.3,335.4c0-3.8-3.1-6.9-6.9-6.9c-3.8,0-6.9,3.1-6.9,6.9s3.1,6.9,6.9,6.9
			C788.2,342.3,791.3,339.2,791.3,335.4"/>
		<path class="st1" d="M1430.1,870.5c-62.9-71.1-163.2-169.1-245.9-199.9c-42.2-15.7-117.8-37.7-66.1-103.7
			c50.4-64.3,78.8-117.4,64.7-192.1c-15.7-82.9-84.3-125-180.8-126c-59.2-0.6-98.9,23.2-129.1,64.1c-35.3,47.8-45.4,93-72.5,123.8
			c-43.2,49.2-88.4,72.8-105.3,80.4c-2.2,0.9-4.5,1.9-6.7,2.8c-0.1,0.1-0.2,0.1-0.2,0.1l0,0c-56.7,24.9-105.2,66-147.5,115.7
			c-42,49.3-77.3,110.8-118.4,168.7h-0.3c-38.5,59.9-122.9,147.8-249.9,157.3c-47.9,3.6-103.4,2.7-168.7-10.4
			C-227.5,905-301.1,1155.4-292,1159.3c40.6,17.2,192,82.7,300.5,86.4c132.6,4.5,238-25.6,323.2-74.9h700.8l57.2-90.1h46.8
			l52.4-112.1c0,0,151.5,0,186.6,0C1411.6,968.6,1506.6,957,1430.1,870.5z"/>
		<g>
			<path class="st5" d="M1005.8,661.1c38.2,3,38.9,45.9,33.5,110.4c-5.2,62.1-12.3,144.8-24.5,269.3
				c-100.9-10.1-370.9-97.4-370.9-97.4c-10.5-16.1,4.9-119.1,20.5-239.9c7.1-54.9,5.1-62.7,37-59.1
				C791.2,654.6,978.7,659,1005.8,661.1z"/>
			<g>
				<path class="st7" d="M210.6,999c0,6.3,5.1,11.5,11.5,11.5c6.3,0,11.5-5.1,11.5-11.5c0-6.3-5.1-11.5-11.5-11.5
					C215.8,987.6,210.6,992.7,210.6,999"/>
				<path class="st39" d="M821.3,679.3c0,0-39.9-32.3-128.9-7.3c-6.9,12.9,24.2,24.2,24.2,24.2s21.4,6.8,51.9,9.9
					C799.1,709.3,821.3,679.3,821.3,679.3z"/>
				<path class="st31" d="M702.2,547.6l-9.8,78.9l18.8,4c0,0,27.4,5.6,30,5.3s30-7.9,30-7.9s28.5-1.9,28.5-4.5s18.5-40.8,18.5-40.8
					s-44.4-24.2-45.4-24.6s-24.7-8.6-24.7-8.6s-21.1-3.3-23.1-3.3S702.2,547.6,702.2,547.6z"/>
				<path class="st31" d="M807.6,696.5c-1-0.2-18.3-8.9-17.3-28.4s6.9-46.7,6.9-46.7s3.5-5.2-2.5-5.3c-5.9-0.1-11.7-1.9-13.4,4.2
					s-7.3,17.1-7.3,17.1s-8.7,11.5-9.6,12.5c-0.8,1-3.6,2.8-11.7,6.2c-8.1,3.4-12,4.2-17.6,4.2c-5.6,0-10.7-1-11.9-1.5
					c-1.2-0.5-7.9-2.7-7.9-2.7l-2.1,0.9l-4.8,42.4l-2,30.3l4.9,16.8l10.9,20.4c0,0,11.5,15.5,12.5,16.2c1,0.7,9.9-2,11.5-4.3
					s21.4-23.7,23.1-27.4s9.2-20.4,11.2-23.1s9.6-14.2,9.9-15.5s6.3-9.6,6.3-9.6L807.6,696.5z"/>
				<path class="st7" d="M918.3,932.2c2.2-12.3,1.3-114.4,1.3-114.4c-3-120.1-92.7-121.4-92.7-121.4l-5.6-17.1
					c0,0-25.1,21.9-52.8,26.9C771,719,771,719,771,719s-12.9,0.5-17.3,11.4c-4.5,10.9-22.8,40.1-22.8,40.1s-9.4-39.6-10.4-44.5
					s-4.9-13.9-8.4-14.3c4.5-15.3,4.5-15.3,4.5-15.3s-20.8-8.9-25.2-20.8c1-3.5,1-3.5,1-3.5s-24.7-2-41.9,0s-38.9,6.6-63.3,5.3
					s-75.2-7.3-93-3.3c-17.8,4-33,9.9-38.9,18.5c-5.9,8.6-9.9,24.4-4,33c5.9,8.6,38.9,27.7,38.9,27.7s-10.1-38.6,30-39.6
					c9.4,0,9.4,0,9.4,0s2.8-7.3,18.6-1c0,0,152.4,68.9,46.2,189c21.6,12,69.8,159.7,119.7,177.1c29.8,10.4,104.9-50.3,109.5-82.4
					c33,3.9,33.9,0.2,33.9,0.2S907.2,994.4,918.3,932.2z"/>
				<path class="st7" d="M446.9,707.4c18.4-19.8,21.7-35.7,58.7-30.9c37.1,4.8,68.6,8.1,80.4,5.9c11.7-2.2,70.8-12.5,95.4-11
					c4.5,0.3,8.4,0.4,11.7,0.5c-0.3,0.1-0.5,0.1-0.8,0.2c-4.9,9.2,9.4,17.6,18.1,21.6l-2.6,89.2c0,0-94-56.5-205.6-15.6
					c0,0-33-6.8-41.8-12.3c-8.8-5.5-13.6-9.1-15.4-12.4C443.2,739.3,428.5,727.2,446.9,707.4z"/>
				<path class="st28" d="M535.2,719c-2.9-0.4-11.4-4.2-11.4-4.2s-14.5-0.7-23.1,16c-8.6,16.7-4.8,34,1.7,36.5
					c15-2.2,29.2-4.6,29.2-4.6L535.2,719z"/>
				<path class="st4" d="M882.7,968.8c0,0,26.7-3.4,19.8,14.2c-6.7,17.1-44.4,32.8-93.6,13.9C860.5,976.8,882.7,968.8,882.7,968.8z"
					/>
				<path class="st7" d="M818.9,996.3L818.9,996.3c32.2-13.2,54.3-28.2,74.9-36.9c2.4-1,13.3,0.3,16-0.7
					c-4.4,9.1-10.6,17.6-19.5,24.4C856.8,1008.7,818.9,996.3,818.9,996.3z"/>
				<g>
					<g>
						<path class="st7" d="M432.2,814.9c2.2,0,2.2-3.3,0-3.3C430,811.5,430,814.9,432.2,814.9L432.2,814.9z"/>
					</g>
				</g>
				<path class="st7" d="M555,932.9l-12.5,3.8l-0.9-6.7c0,0,15.5,2,15.4,2.2S555,932.9,555,932.9z"/>
				<path class="st31" d="M804.2,584.7c13.1,3.3-2.2,31-8.6,30c0,0,0,0.1,0,0.1C785.6,612,791.7,581.5,804.2,584.7z"/>
				<path class="st40" d="M801.9,693c-5.6,3.3-12.2,6.7-19.2,9.3h0c0,0,1.2-37.9-45.6-35.9c-17.3,0.8-16.5,0.1-11.2-6.8
					c2.3,0.4,5.7,0.8,9.3,0.8c5.6,0,9.6-0.8,17.6-4.2c8.1-3.4,10.9-5.2,11.7-6.2s9.6-12.5,9.6-12.5s4.4-8.7,6.6-14.9
					c5.4-2.9,9.9-5.2,12.5-6.5c0.5,0,1,0.1,1.6,0.1c0.5,0,0.8,0.1,1.2,0.1l1.3,5.2c0,0-5.9,27.2-6.9,46.7
					C789.7,680.7,796.6,688.7,801.9,693z"/>
				<path class="st41" d="M700.8,559.3c18.8-11.1,47.7-7.4,62.6,1.7s12.6,34.4,9.9,41.8c-2.7,7.4-10.1,29.7-31.4,25.4
					c-21.3-4.2-44.5-0.7-44.5-0.7s-2.3,22,12.1,36.3c3.9,3.9,22.8,14.6,44.6,2.7c17.7-9.6,27.4-28.1,31.6-36.7
					c3.1-6.3,5.8-6.3,10-5.8c0,0-0.9,7.2-1.9,15.6c37.5-22.1,41.7-69.1,25.4-98.5c-10.2-18.5-41.4-38.7-74.7-26.5
					c-31,11.4-40,2-49.4,9.6C685.7,532.1,688.7,549.6,700.8,559.3z M804.2,584.7c13.1,3.3-2.2,31-8.6,30c0,0,0,0.1,0,0.1
					C785.6,612,791.7,581.5,804.2,584.7z"/>
				<path class="st28" d="M697.4,627.6l8.5-34.4c0,0,2.6,21.7,2.7,25.4C708.6,622.8,705.6,629,697.4,627.6z"/>
				<path class="st40" d="M868.4,985.5c-5.4,7.6-16.1,13.4-25.5,14.1c-25.4,2.1-66-11.4-112.6-23c0,0-47.9-14.1-51.9-17.6
					C744,972.6,832.4,988.8,868.4,985.5z"/>
				
					<rect x="115.7" y="909" transform="matrix(0.2677 -0.9635 0.9635 0.2677 -792.2082 785.1874)" class="st7" width="9.6" height="9.6"/>
				<path class="st42" d="M456.1,943.1c0,0-123.9,25.1-156.8,150.3H511l88.5-21.6l-6.2-101L456.1,943.1z"/>
				<g>
					<path class="st22" d="M556.6,724.6c-7.6,4.2-10.1,15.5-6.5,26.7c0.5,1.6,1.1,3.1,1.9,4.6c4.6,9.4,12.4,15.2,19.7,15.5
						c1.8,0.1,3.6-0.2,5.3-0.8c0.6-0.2,1.1-0.5,1.7-0.8c8.6-4.8,10.7-18.8,4.6-31.3c-4-8.2-10.6-13.8-17.1-15.2
						C562.8,722.6,559.5,722.9,556.6,724.6 M558.4,752.3c-0.3-0.6-0.5-1.1-0.7-1.7c-2.7-6.9-1.3-14.2,3.4-16.8c1.8-1,3.9-1.2,6-0.7
						c3.7,0.9,7.4,4.1,9.7,8.9c3.2,6.6,2.6,13.9-1.3,17.4c-0.4,0.4-0.9,0.8-1.4,1c-1.2,0.7-2.5,1-3.8,1
						C566,761.5,561.2,758,558.4,752.3"/>
					<path class="st31" d="M564.5,715.3c0,0-3.5,0-6.3-1.5c-2.8-1.5-5.4-4.1-8.3-4.6c-3-0.6-13.1-0.4-16.1,0.7
						c-3,1.1-2.8,3.1-4.4,3.9c-1.7,0.7-7,4.1-7.6,7s0.4,7.6-1.1,9.2c-1.5,1.7-6.3,5.5-7.2,9.4c-0.9,3.9,1.3,10.4,0.6,12.9
						c-0.7,2.5-2.1,9,2.2,12.3c4.3,3.3,24,15.7,28.2,14.6c4.2-1.1,7.2-11.4,10-11.1c2.8,0.3,11.9,1.7,12.8-1.4
						c0.8-3.1-2.5-11.7-2.5-11.7s-15.3-4.7-17.5-5.8c-2.2-1.1-8.6-8-8.6-9.4s5.3,0.3,8.6,1.9c3.3,1.7,20.1,7.2,20.1,7.2
						s2.4-17.2-1.8-19.4s-6.7-4.2-6.7-4.2s4.2,0.3,6.1-0.8C566.9,723.6,570.8,716.8,564.5,715.3z"/>
					<g>
						<path class="st3" d="M559.4,712.2C559.4,712.2,559.4,712.2,559.4,712.2l0,0.1l1.5,11.8l0.9,6.6l2.4,18.3l1.5,11.3l0.9,6.6
							l0.4,3.4c0.5,3.8,2.2,7.2,4.8,9.9c3.4,3.5,8.2,5.6,13.5,5.6h8.4c8.5,0,15.8-5.5,17.9-13.2c0.2-0.6,0.3-1.3,0.4-1.9l6.5-43.7
							l2.2-14.6c0,0,0-0.1,0-0.1H559.4z"/>
						<path class="st32" d="M559.4,712.2C559.4,712.2,559.4,712.2,559.4,712.2l0,0.1l1.5,11.8l0.9,6.6l2.4,18.3l1.5,11.3l0.9,6.6
							l0.4,3.4c0.5,3.8,2.2,7.2,4.8,9.9c3.4,3.5,8.2,5.6,13.5,5.6h4.5c-2.1-0.9-4.1-2.3-5.7-3.9c-2.6-2.6-4.4-6-4.8-9.9l-0.4-3.4
							l-0.9-6.6l-1.5-11.3l-2.4-18.3l-0.9-6.6l-1.5-11.8v0c0,0,0-0.1,0-0.1"/>
						<path class="st22" d="M559.4,712.2c0,0.9,3.2,1.6,8.3,2.2c5.6,0.6,13.5,1,22.3,1s16.7-0.4,22.3-1c5.1-0.6,8.3-1.4,8.3-2.2
							c0-1.8-13.7-3.2-30.6-3.2S559.4,710.4,559.4,712.2"/>
					</g>
					<path class="st28" d="M547.2,741.9c0,0-2.5,3.1-2.1,5.9l-2-1.9c-2.3-2.4-5.8-6.3-5.8-7.2C537.3,737.5,543.2,739.9,547.2,741.9z
						"/>
					<path class="st28" d="M554.4,768.2c0,0-9-1.6-11.5-2.6c-2.6-1-10.8-7.6-10.8-7.6S535.8,772.7,554.4,768.2z"/>
					<path class="st28" d="M541.6,712.2c0,0,7.8,7.3,9.4,8.2c0.7,0.4,7.5,2.5,9.8,2.3c0.2,1.1,0.3,1.9,0.4,2.8c-1.1,0.1-2.3,0-2.3,0
						l-10.3-6L541.6,712.2z"/>
					<g class="st6">
						<path class="st7" d="M636.5,607c-29.2-40.1-85.2-16.7-60.2-0.2c16.3,10.7,6.9,26.4-8.7,37.2c-15.6,10.7-24.8,21.9-18.3,35.5
							s25.9,17.7,28.7,26c1.2,3.7,0.4,7-0.8,9.6c3.9,0.2,8.1,0.3,12.7,0.3c4.6,0,9-0.1,12.9-0.3c2.2-2.7,5.1-8.4,3.4-13.7
							c-3.1-9.6-15.7-9.8-10.8-23.3C600.2,664.5,669.4,652.3,636.5,607z"/>
					</g>
				</g>
				<g>
					<path class="st43" d="M315.2,735.5c9.7,0.3,166,11.5,198.7,13.6c3.8,0.2,6.8,3.1,8.6,6.9l24.9,179.6
						c-15.1,4.7-31.1,10.8-48,17.7c-44.5-8.5-147.7-27.9-151.9-28.8c-5.5-1.2-12.8,0.3-15.2-14.4c-2.3-14.7-25.7-160.5-26.3-164.4
						C305.5,741.7,304.3,735.1,315.2,735.5z"/>
					<path class="st43" d="M313.3,739.4c9.6,0.3,164.7,11.3,197.2,13.4c3.7,0.2,6.8,3.1,7.3,6.8l29.5,171.1
						c-6.6,2.2,23.1-17.8,62.3-11.3c32.9,5.5,120.3,18.9,21.7,21.8c-21.2-3.7-40-9.9-56.3-7.6c-23.7,3.4-42.2,17.6-55.3,23.7
						c-44.2-8.4-170.1-30.8-174.3-31.7c-5.5-1.2-12.7,0.3-15.1-14.2c-2.3-14.5-25.5-158.2-26.1-162S302.5,739,313.3,739.4z"/>
				</g>
				<path class="st31" d="M730.2,976.6C730.2,976.6,730.2,976.6,730.2,976.6c-0.1,0-0.1,0-0.1-0.1c0,0-0.1,0-0.1,0
					c0,0-0.1,0-0.1-0.1c0,0-0.1,0-0.1-0.1c0,0-0.1,0-0.2-0.1c0,0-0.1,0-0.1-0.1c-0.1,0-0.1-0.1-0.2-0.1c-0.2-0.1-0.5-0.3-0.9-0.4
					c0,0-0.1,0-0.1-0.1c-0.2-0.1-0.4-0.2-0.6-0.3c0,0-0.1,0-0.1,0c-0.4-0.2-0.9-0.4-1.4-0.6c-0.1,0-0.1,0-0.2-0.1
					c-0.3-0.1-0.5-0.2-0.8-0.3c0,0-0.1,0-0.1-0.1c-0.3-0.1-0.6-0.2-0.9-0.4c-0.1,0-0.1,0-0.1-0.1c-0.3-0.1-0.6-0.3-1-0.4
					c-0.1,0-0.2-0.1-0.2-0.1c-0.3-0.1-0.7-0.3-1.1-0.4c-0.1,0-0.2-0.1-0.2-0.1c-0.9-0.3-1.8-0.7-2.8-1.1c-0.1,0-0.1,0-0.2-0.1
					c-0.4-0.2-0.9-0.3-1.3-0.5c-0.1,0-0.3-0.1-0.4-0.1c-0.4-0.2-0.9-0.3-1.4-0.5c-0.2-0.1-0.3-0.1-0.5-0.2c-0.5-0.2-1-0.3-1.4-0.5
					c-0.2-0.1-0.3-0.1-0.5-0.2c-0.6-0.2-1.2-0.4-1.9-0.6c-0.1,0-0.1-0.1-0.2-0.1c-0.6-0.2-1.3-0.4-1.9-0.6c-0.1,0-0.2-0.1-0.3-0.1
					c-0.5-0.2-0.9-0.3-1.4-0.5c-0.3-0.1-0.7-0.2-1-0.3c-0.6-0.2-1.2-0.4-1.8-0.6c-0.3-0.1-0.5-0.2-0.7-0.2c-0.8-0.3-1.6-0.5-2.4-0.8
					c-0.1,0-0.2-0.1-0.3-0.1c-0.7-0.2-1.5-0.5-2.2-0.7c-0.2-0.1-0.4-0.1-0.6-0.2c-0.6-0.2-1.2-0.4-1.8-0.6c-0.4-0.1-0.8-0.2-1.2-0.4
					c-0.7-0.2-1.4-0.4-2.1-0.6c-0.4-0.1-0.7-0.2-1-0.3c-0.8-0.2-1.6-0.5-2.4-0.7c-0.3-0.1-0.6-0.2-0.9-0.3c-0.9-0.3-1.8-0.5-2.7-0.8
					c-0.3-0.1-0.5-0.2-0.8-0.2c-0.7-0.2-1.5-0.4-2.2-0.6c-0.5-0.1-1-0.3-1.5-0.4c-0.5-0.2-1.1-0.3-1.6-0.5c-0.7-0.2-1.5-0.4-2.2-0.6
					c-1.3-0.4-2.7-0.7-4-1.1c-38.8-12.1-53-26.2-89.5-29.7c-0.4-0.2-10.4,0.4-11.8,0.6c0,0,0,0,0,0c-0.8,0.2-24.9,1.6-24.9,1.6
					l-4.6-28.6c0,0,18-11.4,23-12.9c4.9-1.5,7.9-5.4,17.3-4.9c9.4,0.5,68.3,31,73.2,32.6c0,0,73.4,9.6,161.3,3
					c43-3.2,49.5,20.3,49.5,20.3c18.3,31.7,0.8,55.5-21.8,59.6C823.9,1003.1,776.9,988.2,730.2,976.6
					C730.3,976.6,730.3,976.6,730.2,976.6z"/>
				<path class="st24" d="M364.3,1090c0,0,153.9-158.3,212.3-158.3c37.7,0,47.5,5.4,96.1,22.8s136.8,40.1,136.8,40.1
					s-136.1,76-163.9,92.5c-29.8-10.3-40.9-18.3-69.3-25.5c-35.6,0-146,65.1-146,65.1S369.2,1121.9,364.3,1090z"/>
			</g>
		</g>
		<path class="st7" d="M1033.6,494.3c0,5.4-4.3,9.7-9.7,9.7c-5.4,0-9.7-4.3-9.7-9.7c0-5.4,4.3-9.7,9.7-9.7
			C1029.3,484.5,1033.6,488.9,1033.6,494.3"/>
		<path class="st7" d="M1306.3,900.7c0,5.4-4.3,9.7-9.7,9.7c-5.4,0-9.7-4.3-9.7-9.7s4.3-9.7,9.7-9.7
			C1302,891,1306.3,895.4,1306.3,900.7"/>
		
			<rect x="931" y="535.6" transform="matrix(0.9635 -0.2677 0.2677 0.9635 -110.647 270.4069)" class="st7" width="10.8" height="10.8"/>
		<polygon class="st4" points="-97.7,797.5 31.4,797.5 22.5,757.2 -145.6,757.2 		"/>
		<g>
			<polygon class="st1" points="-101.4,771.1 -11.3,771.1 10.6,785.6 10.6,788 -84.3,788 -101.4,773.5 			"/>
			<polygon class="st7" points="-82.3,784.1 8.8,784.2 -16,768.2 -102.3,768.2 			"/>
		</g>
		<g>
			<g>
				<path class="st4" d="M86.3,709h-1.7V510.2c0-1.6,1.3-3,3-3h30.2c16.5,0,31.8,8.9,40.1,23.1l5.1,8.8l-1.5,0.9l-5.1-8.8
					c-7.9-13.7-22.7-22.3-38.6-22.3H87.6c-0.7,0-1.3,0.6-1.3,1.3V709z"/>
			</g>
			<path class="st5" d="M125,552.1h69.1c-6.7-12.2-19.7-20.4-34.6-20.4C144.6,531.7,131.7,540,125,552.1"/>
			<g class="st6">
				<polygon class="st7" points="59.7,900.3 309.8,843.8 194.2,552.1 125,552.1 				"/>
			</g>
		</g>
		<path class="st7" d="M183.8,1180.5l699.9-212.2h1001.6c-19.4,17.5-527.2,494-538.5,491.8c-10-1.9-942.1-197.5-1163-255.2
			C171.2,1201.6,171.2,1183.8,183.8,1180.5z"/>
		<g>
			<g>
				<path class="st5" d="M997.7,1045.3l-78.7-0.6c-3.5,0-6-3.5-4.8-6.9l11.7-33.5c0.7-2.1,2.7-3.4,4.8-3.5l73.8-0.7
					c3.3,0,5.7,2.9,5.1,6.2l-6.8,34.7C1002.3,1043.5,1000.1,1045.3,997.7,1045.3z"/>
				<path class="st33" d="M875.2,1016.5l51,36.4c3.3,2.3,7.6,2.7,11.2,1l49.5-23.5c3.7-1.7,3.8-6.9,0.3-8.9l-54.9-31.1
					c-3.1-1.8-6.9-1.9-10.1-0.5l-46.3,20.5C873.4,1011.6,873.1,1015,875.2,1016.5z"/>
				<polygon class="st7" points="957.3,1044.6 943.8,1051 882.2,1007.7 894,1002.5 				"/>
			</g>
		</g>
	</g>
</g>
<g>
	<polygon class="st3" points="253.9,952.7 253.9,952.7 250.1,959.1 253.8,965.5 254,965.5 257.7,959.1 	"/>
	<path class="st22" d="M158.6,669c0,0,4.5,39.2-12.7,49.7c-15.7,6.1-18.9,3.8-18.9,3.8L158.6,669z"/>
	<path class="st23" d="M137,718.7c0.3,0,18.1-7.2,50,12.8c28.1,16.9,31.9,19.3,31.9,19.3s-0.2,18.8-10.7,24.6
		c-23.4-6.2-41.8-16.8-43.3-16.3c-1.4,0.5,0.7,12.2-1.8,17.7c-1.6,3.6-9.7,20.9-15.1,32.4c-2.8,6-6.9,8.5-6.9,8.5l3.4,20.9l-8.3,4.2
		c0,0-74.3-16.6-74.3-18c0-1.4,2.9-37.9,2.9-39.1C59.5,773,40.7,721.4,137,718.7z"/>
	<path class="st24" d="M158.6,669c0,0,4.5,39.2-12.7,49.7c-15.7,6.1-18.9,3.8-18.9,3.8L158.6,669z"/>
	<path class="st25" d="M154.5,666.7c0,0-10,18-39.2,16.1c-3.7-5-10.4,4.8-1,7.3c0,0-12.5,20.5,5.2,39.7c18.2,19.7,22.1,39,8.6,40.8
		c-32,4.1-23.5-41.1-38.3-43.3c-7,0.8-13.8,5.8-13.8,5.8s-9.5-44.7,17.2-68.5s57-18.6,63.6-5.2c6.7,13.3-0.8,18.1-0.8,18.1
		S156.3,669.5,154.5,666.7z"/>
	<path class="st26" d="M199.9,761c0,0-14.3-5.2-18.1-4.5s-9.1-0.9-27.2,30.7c-18.1,31.6-33.5,52.2-33.5,52.2l95.2,24.9
		c0,0-5.1-81.9-8.1-91.6C205.3,763.2,199.9,761,199.9,761z"/>
	<path class="st27" d="M143.1,819.6c0,0,8.2,20.6-1.1,19.4c-9.3-1.2-16.4-18.4-14.7-36.8C133.8,803.5,143.1,819.6,143.1,819.6z"/>
	<path class="st28" d="M230.2,749.1l-1.5,2.6c0,0-3.8,2.4-9.8,2.7c-5.1-0.4-15.5,13.8-7.9,16.2c7.6,2.4,10.8,3.1,12.8,2
		s1.8-3.1,3-3.7c1.2-0.6,4.2-2.1,3-5.4c0.7-1.7,3.1-1.9,3.2-3c0.1-1.1,0.8-2-0.7-3.5C233.2,754.7,234.8,754.7,230.2,749.1z"/>
	<path class="st29" d="M211.9,745.5c0,0-20.1,13.9-23,16.5c-2.9,2.7-8.2,9.3-10.5,11.4c-2.3,2.1-51.2,28.8-51.2,28.8
		s-1.9,14.2,3.8,26.3c10.5-9.1,52.1-38.4,54.9-40.2c2.8-1.7,14-4.9,19.3-7.8c5.2-2.9,16.5-6.6,16.7-14c0,0,5.9-4.1,4.1-6.2
		c-1.8-2.2-4.9,0.7-4.9,0.7s6.4-3.6,4.5-6.1s-24.5,8.3-24.5,8.3s-2.8,0.1,0.2-2.6c2.9-2.7,11.9-10.9,13.1-11.8
		c1.2-0.9,3.1-2.8,1.9-4.1C215.1,743.3,211.9,745.5,211.9,745.5z"/>
	<path class="st7" d="M165.5,681.2c-1.4-0.7-2.8-0.9-4.3-0.9c-5.9,0-11.3,4.6-12.2,4.6c-2.9-2.5-6.8-3.2-10.3-3.2
		c-4.2,0-7.6,1-7.6,1s-6.4,13.2,4.1,13.2c10.5,0,12.5-9.2,12.5-9.2s0.2,0,0.6,0s1,0,1.8,0.2c1,5.6,2.7,7.6,4.6,7.6
		C159.7,694.4,166,681.4,165.5,681.2z M146.4,686.4c-0.1,0.3-1.9,8.1-11.1,8.1c-2,0-3.3-0.5-4-1.6c-1.4-2.3,0-6.8,0.9-9
		c1.1-0.3,3.7-0.8,6.6-0.8c3.2,0,5.8,0.6,7.8,1.9c0,0.3-0.1,0.7-0.1,0.8l0,0.1L146.4,686.4z M154.8,693c-1.3,0-2.5-2.4-3.2-6.4
		l-0.2-0.9l0-0.3c0.1,0,0.1-0.1,0.2-0.1c2.2-1.3,5.9-3.5,9.7-3.5c0.9,0,1.7,0.1,2.5,0.3C162.4,685.2,157.8,693,154.8,693z"/>
	<path class="st26" d="M199.9,761c0,0-14.3-5.2-18.1-4.5s-9.1-0.9-27.2,30.7c-18.1,31.6-33.5,52.2-33.5,52.2l89.8,19.6
		c0,0,0.3-76.7-2.7-86.3C205.3,763.2,199.9,761,199.9,761z"/>
	<path class="st23" d="M137,718.7c0.3,0,18.1-7.2,50,12.8c28.1,16.9,31.9,19.3,31.9,19.3s-0.2,18.8-10.7,24.6
		c-23.4-6.2-41.8-16.8-43.3-16.3c-1.4,0.5,0.7,12.2-1.8,17.7c-1.6,3.6-9.7,20.9-15.1,32.4c-2.8,6-6.9,8.5-6.9,8.5l3.4,20.9l-8.3,4.2
		c0,0-74.3-16.6-74.3-18c0-1.4,2.9-37.9,2.9-39.1C59.5,773,40.7,721.4,137,718.7z"/>
	<path class="st29" d="M137.2,710.1c-0.2,2.5,1,25.8-8.7,30.8s-38.9,7.9-58.4-2.8c11.9-12.2,31-13.8,31-13.8s11.8-30.9,9.8-32.2
		c-2-1.3-8.9-8.2-4.5-12.3s19.3,0,19.3,0s29.1-17,29.7-16.3c0.5,0.7,1.9,7.8,1.9,7.8l-6.4,30.6h-2.6c0,0-6,16-14.3,15.2
		c-10.5-1-16.9-16.7-16.9-16.7"/>
	<path class="st24" d="M154.5,666.7c0,0-10,18-39.2,16.1c-3.7-5-10.4,4.8-1,7.3c0,0-12.5,20.5,5.2,39.7c18.2,19.7,22.1,39,8.6,40.8
		c-32,4.1-23.5-41.1-38.3-43.3c-7,0.8-13.8,5.8-13.8,5.8s-9.5-44.7,17.2-68.5s57-18.6,63.6-5.2c6.7,13.3-0.8,18.1-0.8,18.1
		S156.3,669.5,154.5,666.7z"/>
	<path class="st25" d="M199.9,761c0,0-14.3-5.2-18.1-4.5s-9.1-0.9-27.2,30.7c-18.1,31.6-33.5,52.2-33.5,52.2l63.7,18.4l63.5,6.8
		c0,0-32.8-82.3-35.8-92S199.9,761,199.9,761z"/>
	<path class="st27" d="M147.3,819.3c0,0,8.2,20.6-1.1,19.4c-9.3-1.2-16.4-18.4-14.7-36.8C138.1,803.2,147.3,819.3,147.3,819.3z"/>
	<path class="st7" d="M223,735.1c-1.7,0.4-3.2,1.5-4,3l-18.7,30.7c0,0-1.7,2.7,0.7,2.9c2.4,0.1,21.5-5.8,23.1-6.7
		c1.6-0.9,18.1-27.8,19.2-29.3s1.5-5.5-4.2-4.2C235,732.4,226.9,734.2,223,735.1z"/>
	<path class="st28" d="M234.7,749.1l-1.5,2.6c0,0-3.8,2.4-9.8,2.7c-5.1-0.4-15.5,13.8-7.9,16.2c7.6,2.4,10.8,3.1,12.8,2
		s1.8-3.1,3-3.7c1.2-0.6,4.2-2.1,3-5.4c0.7-1.7,3.1-1.9,3.2-3c0.1-1.1,0.8-2-0.7-3.5C237.7,754.7,239.3,754.7,234.7,749.1z"/>
	<path class="st7" d="M165.5,681.2c-1.4-0.7-2.8-0.9-4.3-0.9c-5.9,0-11.3,4.6-12.2,4.6c-2.9-2.5-6.8-3.2-10.3-3.2
		c-4.2,0-7.6,1-7.6,1s-6.4,13.2,4.1,13.2c10.5,0,12.5-9.2,12.5-9.2s0.2,0,0.6,0s1,0,1.8,0.2c1,5.6,2.7,7.6,4.6,7.6
		C159.7,694.4,166,681.4,165.5,681.2z M146.4,686.4c-0.1,0.3-1.9,8.1-11.1,8.1c-2,0-3.3-0.5-4-1.6c-1.4-2.3,0-6.8,0.9-9
		c1.1-0.3,3.7-0.8,6.6-0.8c3.2,0,5.8,0.6,7.8,1.9c0,0.3-0.1,0.7-0.1,0.8l0,0.1L146.4,686.4z M154.8,693c-1.3,0-2.5-2.4-3.2-6.4
		l-0.2-0.9l0-0.3c0.1,0,0.1-0.1,0.2-0.1c2.2-1.3,5.9-3.5,9.7-3.5c0.9,0,1.7,0.1,2.5,0.3C162.4,685.2,157.8,693,154.8,693z"/>
	<g>
		<path class="st5" d="M148.6,837.7l0.4-0.2l0,0C148.9,837.5,148.7,837.6,148.6,837.7z"/>
		<path class="st23" d="M146.2,838.6c-5.5-0.7-9.8-7.9-13-16c-11,3.5-16.7,15.1-17.3,15.9c10.1,2.3,20.9,5.3,20.9,5.3l11.9-5.5
			C148,838.6,147.2,838.7,146.2,838.6z"/>
	</g>
	<path class="st28" d="M148.4,701.9l0.3-12.1l-2.7,8.1C145.3,699.6,146.4,701.6,148.4,701.9"/>
	<path class="st29" d="M137.2,710.1c-0.2,2.5,1,25.8-8.7,30.8"/>
	<path class="st28" d="M134,717.1c-8.3-0.8-14.1-10.8-16.1-14.9c0,0,0,0,0,0c5.8,22,18.8,19.6,18.8,19.6l0.3-5.1
		C136.1,717,135.1,717.2,134,717.1z"/>
	<path class="st22" d="M213.8,777.9l-29.2,9.5l-38.4,29.8c0.9,1.4,1.4,2.3,1.4,2.3s0.7,1.7,1.4,4.1c9-7.4,37.8-29.2,42.4-32.5
		c4.9-3.6,17.3-6.3,22.8-10.8C213.8,777.9,213.8,777.9,213.8,777.9z"/>
	<path class="st29" d="M216.4,745.5c0,0-20.1,13.9-23,16.5c-2.9,2.7-8.2,9.3-10.5,11.4c-2.3,2.1-51.2,28.8-51.2,28.8
		s-1.9,14.2,3.8,26.3c10.5-9.1,52.1-38.4,54.9-40.2c2.8-1.7,14-4.9,19.3-7.8c5.2-2.9,16.5-6.6,16.7-14c0,0,5.9-4.1,4.1-6.2
		c-1.8-2.2-4.9,0.7-4.9,0.7s6.4-3.6,4.5-6.1s-24.5,8.3-24.5,8.3s-2.8,0.1,0.2-2.6c2.9-2.7,11.9-10.9,13.1-11.8
		c1.2-0.9,3.1-2.8,1.9-4.1C219.6,743.3,216.4,745.5,216.4,745.5z"/>
	<polygon class="st7" points="205.4,1028.1 205.4,1028.1 201.1,1035.5 205.4,1042.8 205.5,1042.8 209.8,1035.5 	"/>
	<polygon class="st7" points="1262.6,840.4 1262.6,840.4 1258.2,847.8 1262.5,855.2 1262.7,855.2 1266.9,847.8 	"/>
</g>
<path class="st7" d="M285.1,875.5L36.6,800.2H0c6.9,6.2-4,148.4,0,147.6c3.6-0.7,206.7-43.1,285.1-63.6
	C289.6,883,289.6,876.7,285.1,875.5z"/>
<g>
	<path class="st4" d="M48.5,797.3c-1.4-0.7-2.9-0.9-4.5-0.6c-3,0.6-6.1,3-8,6.6c-2.8,5.5-1.9,11.6,2.1,13.7c0.3,0.1,0.5,0.2,0.8,0.3
		c0.8,0.3,1.6,0.4,2.5,0.4c3.4-0.1,7-2.7,9.2-6.8c0.4-0.7,0.6-1.3,0.9-2C53.2,804,52.1,799.1,48.5,797.3 M48.4,809.8
		c-1.5,2.9-4.1,4.7-6.5,4.7c-0.7,0-1.4-0.2-2.1-0.5c-0.3-0.2-0.5-0.3-0.8-0.5c-2.1-1.8-2.4-5.5-0.7-8.9c1.3-2.4,3.3-4.1,5.3-4.5
		c1.1-0.3,2.3-0.2,3.3,0.3c2.6,1.3,3.3,5.1,1.9,8.6C48.7,809.2,48.6,809.5,48.4,809.8"/>
	<path class="st4" d="M44.8,790.9C44.8,790.9,44.8,790.9,44.8,790.9L44.8,790.9l-0.7,5.8l-0.4,3.3l-1.1,9l-0.7,5.6l-0.4,3.2
		l-0.2,1.7c-0.2,1.9-1,3.5-2.3,4.8c-1.6,1.7-3.8,2.7-6.3,2.7h-3.9c-4,0-7.4-2.7-8.3-6.5c-0.1-0.3-0.1-0.6-0.2-0.9l-3-21.4l-1-7.2
		c0,0,0,0,0-0.1H44.8z"/>
	<path class="st26" d="M44.8,791.3c0,1.9-1.5,3.6-3.9,4.9c-2.6,1.4-6.3,2.2-10.4,2.2c-4.1,0-7.8-0.9-10.4-2.2
		c-2.4-1.3-3.9-3-3.9-4.9c0-3.9,6.4-7.1,14.2-7.1C38.4,784.2,44.8,787.4,44.8,791.3"/>
	<path class="st36" d="M25.8,767.5c6.8-3.2,11.5-8.8,5.8-14c-8.8-8.1,14.8-13.7,23.6,3.9c10,19.9-17.9,20.3-20.7,25.3
		c-2.8,5,2.1,5.9,2.7,9.9c0.4,2.6-1.8,5-2.7,5.6c-1.3,0.2-2.6,0.3-4,0.3c-2.5,0-4.8-0.3-6.9-0.9c0.9-0.8,2.7-2.6,2.3-5.2
		c-0.6-3.5-8-6.3-9.6-12.1C14.6,774.5,19,770.7,25.8,767.5z"/>
</g>
</svg>
