<?xml version="1.0" encoding="utf-8"?>
<!-- Generator: Adobe Illustrator 23.0.4, SVG Export Plug-In . SVG Version: 6.00 Build 0)  -->
<svg version="1.1" id="Layer_1" xmlns="http://www.w3.org/2000/svg" xmlns:xlink="http://www.w3.org/1999/xlink" x="0px" y="0px"
	 viewBox="0 0 125.4 60" style="enable-background:new 0 0 125.4 60;" xml:space="preserve">
<style type="text/css">
	.st0{fill:#EC0000;}
	.st1{fill:none;}
</style>
<g>
	<path class="st0" d="M16.6,29.1c0-0.8-0.3-1.5-0.6-2.3l-3.8-6.3c-0.2-0.5-0.5-1.1-0.5-1.5l-0.2,0.3c-0.9,1.5-0.9,3.5,0,5l2.9,5
		c0.9,1.5,0.9,3.5,0,5l-0.2,0.3c-0.2-0.5-0.3-1.1-0.6-1.5L11,28.5l-1.7-3C9,25,8.9,24.6,8.7,24l-0.2,0.3c-0.9,1.5-0.9,3.5,0,5l0,0
		l2.9,5c0.9,1.5,0.9,3.5,0,5l-0.2,0.3C11.2,39,11,38.4,10.7,38l-3.5-6.2c-0.5-0.9-0.8-1.8-0.8-2.7C2.7,30,0,32.3,0,34.7
		C0,38.1,5.1,41,11.6,41c6.3,0,11.6-2.9,11.6-6.3C23.1,32.3,20.3,30,16.6,29.1z"/>
	<path class="st0" d="M27.4,39.8c0-0.9,0.2-1.5,0.5-2.3c1.2,0.6,2.7,0.9,3.9,0.9c2,0,3.2-0.6,3.2-2c0-1.2-0.8-1.8-2.9-2.7L31,33.3
		c-2.1-0.9-3.5-2.1-3.5-4.4c0-2.4,1.7-4.1,5.3-4.1c1.4,0,2.7,0.2,3.9,0.6c0,0.9-0.2,1.5-0.5,2.1c-1.2-0.5-2.6-0.6-3.6-0.6
		c-2,0-2.7,0.8-2.7,2c0,1.1,0.9,1.8,2.4,2.4l1.2,0.5c2.7,1.2,3.9,2.4,3.9,4.5c0,2.6-2,4.2-5.6,4.2C30.1,40.5,28.6,40.2,27.4,39.8z"
		/>
	<path class="st0" d="M44.9,28.6c-3.9,0-6,2.3-6,6c0,3.6,2,5.7,4.8,5.7c1.5,0,2.4-0.6,3-1.5l0.2,1.4h2.3V29.4
		C47.8,28.9,46.6,28.8,44.9,28.6z M46.7,37.7c-0.6,0.6-1.4,0.9-2.3,0.8c-2.1,0-3-1.5-3-3.8c0-2.4,1.2-3.9,3.6-3.9
		c0.6,0,1.2,0,1.7,0.2V37.7z"/>
	<path class="st0" d="M61.3,32.9v7.2h-2.4v-6.8c0-1.7-0.6-2.6-3-2.6c-0.6,0-1.2,0-2,0.2v9.2h-2.4V29.4c1.5-0.3,3.2-0.6,4.4-0.6
		C60,28.8,61.3,30.3,61.3,32.9z"/>
	<path class="st0" d="M68,38.4c0.8,0,1.4-0.2,1.8-0.3c0,0.6-0.2,1.4-0.3,2c-0.6,0.3-1.4,0.3-2,0.3c-2.3,0-3.8-1.1-3.8-3.8V25.3
		c0.6-0.2,1.5-0.3,2.3-0.3v4.1h3.8c0,0.8-0.2,1.4-0.2,2.1H66v5.3C66,37.8,66.8,38.4,68,38.4z"/>
	<path class="st0" d="M76.5,28.6c-3.9,0-6,2.3-6,6c0,3.6,2,5.7,4.8,5.7c1.5,0,2.4-0.6,3-1.5v1.4h2.3V29.4
		C79.4,28.9,78.2,28.8,76.5,28.6z M78.4,37.7c-0.8,0.6-1.5,0.9-2.3,0.8c-2.1,0-3-1.5-3-3.8c0-2.4,1.2-3.9,3.6-3.9
		c0.6,0,1.2,0,1.7,0.2V37.7z"/>
	<path class="st0" d="M92.8,32.9v7.2h-2.4v-6.8c0-1.7-0.6-2.6-3-2.6c-0.6,0-1.2,0-2,0.2v9.2H83V29.4c1.5-0.3,3.2-0.6,4.4-0.6
		C91.6,28.8,92.8,30.3,92.8,32.9z"/>
	<path class="st0" d="M102.5,25.3v3.6c-0.6-0.2-1.2-0.2-1.8-0.2c-3.9,0-6,2.3-6,6c0,3.6,2,5.7,4.8,5.7c1.7,0,2.6-0.6,3.2-1.7
		l0.2,1.4h2.3V25C104.3,25,103.4,25.2,102.5,25.3z M102.6,37.7c-0.6,0.5-1.4,0.9-2.4,0.9c-2.1,0-3-1.5-3-3.8c0-2.4,1.1-3.9,3.5-3.9
		c0.8,0,1.4,0,2,0.2C102.6,31.1,102.6,37.7,102.6,37.7z"/>
	<path class="st0" d="M117.2,33.9c0-2.7-1.4-5-4.8-5c-3.8,0-5.3,2.6-5.3,5.7c0,3.6,2,5.9,5.9,5.9c1.2,0,2.4-0.3,3.5-0.8
		c0.2-0.6,0.2-1.5,0.3-2.1c-1.2,0.5-2.4,0.8-3.8,0.8c-2.3,0-3.3-0.9-3.6-2.9h7.5C117.1,35,117.1,34.4,117.2,33.9z M109.2,33.6
		c0.3-1.8,1.2-2.9,2.9-2.9s2.6,1.1,2.6,2.9H109.2z"/>
	<path class="st0" d="M125.4,28.8c0,0.8-0.2,1.7-0.2,2.1c-0.6,0-1.1-0.2-1.8-0.2c-0.6,0-1.2,0-1.8,0.2v9.3h-2.4V29.4
		c1.1-0.3,2.7-0.6,4.1-0.6C124,28.8,124.8,28.8,125.4,28.8z"/>
</g>
<rect class="st1" width="125.4" height="60"/>
</svg>
